<svg id="Layer_1" data-name="Layer 1" xmlns="http://www.w3.org/2000/svg" viewBox="0 0 280 300"><defs><style>.cls-1{fill:#231f20;fill-rule:evenodd;}</style></defs><title>dvd video logo</title><path class="cls-1" d="M150.68,116.55c1.54-1.86,9.86-11.71,9.86-11.71h31.39c15.89,0,27,8.33,24.46,19s-17.68,19-33.5,19h-21l6.31-26.57H183l-4.32,18.19H182c8.86,0,17.24-3.23,19-10.64,1.62-6.82-4.25-10.65-13.79-10.65H169.29L135.21,151.7l-13.38-37.8-.23-.57c0-.07-.28-.34-.42-.29s-.21.53-.17.62a3.78,3.78,0,0,1,.18.43,20.22,20.22,0,0,1,.77,9.78c-2.65,10.67-17.69,19-33.5,19h-21l6.31-26.57H88.56l-4.32,18.19h3.33c8.85,0,17.19-3.23,19-10.64,1.62-6.82-4.2-10.65-13.74-10.65H74.46l2-8.37H96.11l26.07,0v0h10.73s3,8.88,4,11.57c4.5,12.84,3.75,13.71,3.75,13.71s-.53-.83,10.05-13.57Z"/><path class="cls-1" d="M63.24,162.14c0-5.68,32.47-10.28,72.5-10.28s72.5,4.6,72.5,10.28-32.46,10.27-72.5,10.27-72.5-4.6-72.5-10.27Zm69.88,3.62c9.14,0,16.56-1.53,16.56-3.42s-7.42-3.43-16.56-3.43-16.55,1.54-16.55,3.43,7.41,3.42,16.55,3.42Z"/><polygon class="cls-1" points="202.69 170.34 202.03 170.34 201.73 172.41 201.41 172.41 201.7 170.34 201.03 170.34 201.07 170.04 202.74 170.04 202.69 170.34 202.69 170.34"/><polygon class="cls-1" points="205.15 172.41 204.84 172.41 204.84 170.61 204.84 170.61 203.88 172.41 203.47 170.59 203.47 170.59 202.88 172.41 202.57 172.41 203.35 170.04 203.62 170.04 203.99 171.65 204.84 170.04 205.15 170.04 205.15 172.41 205.15 172.41"/><polygon class="cls-1" points="87.73 190.47 87.78 190.47 92.26 181.46 96.46 181.46 88.66 195.19 86.37 195.19 78.7 181.46 82.91 181.46 87.73 190.47 87.73 190.47"/><polygon class="cls-1" points="109.96 194.83 106.04 194.83 106.04 181.46 109.96 181.46 109.96 194.83 109.96 194.83"/><path class="cls-1" d="M121.32,181.46h5.59c5.8,0,9.69,2.89,9.69,6.7s-4,6.67-9.72,6.67h-5.56V181.46Zm3.91,11.1h.64c4.82,0,6.69-1.77,6.69-4.42,0-2.91-2.24-4.41-6.69-4.41h-.64v8.83Z"/><polygon class="cls-1" points="150.95 183.73 150.95 186.67 157.18 186.67 157.18 188.94 150.95 188.94 150.95 192.56 157.42 192.56 157.42 194.83 147.03 194.83 147.03 181.46 157.42 181.46 157.42 183.73 150.95 183.73 150.95 183.73"/><path class="cls-1" d="M167.58,188.13c0-3.75,4.07-7,9.93-7s9.93,3.28,9.93,7-4.07,7.06-9.93,7.06-9.93-3.23-9.93-7.06Zm4-.11c0,2,2.55,4.6,5.88,4.6s5.88-2.58,5.88-4.6-2.45-4.35-5.88-4.35-5.88,2.19-5.88,4.35Z"/></svg>